# xmcd CD database file
#
# Track frame offsets:
#	150
#	17137
#	32515
#	45272
#	62415
#	76070
#	88625
#	102240
#	114887
#	128000
#
# Disc length: 1863 seconds
#
# Revision: 0
# Processed by: cddbd v1.5.2PL0 Copyright (c) Steve Scherf et al.
# Submitted via: CDex 1.51
#
DISCID=6407450a
DTITLE=Scott Foster - Solo Electric Blues Guitar
DYEAR=2000
DGENRE=Blues
TTITLE0=Storm Cloud
TTITLE1=Walking
TTITLE2=Swing Gate
TTITLE3=Seventh Street Blues
TTITLE4=Rolling
TTITLE5=Ruckus
TTITLE6=The Chill
TTITLE7=Lefty
TTITLE8=Pull Back
TTITLE9=Ice Cream
EXTD=YEAR: 2000
EXTT0=
EXTT1=
EXTT2=
EXTT3=
EXTT4=
EXTT5=
EXTT6=
EXTT7=
EXTT8=
EXTT9=
PLAYORDER=
